<svg width="25" height="25" viewBox="0 0 25 25" fill="none" xmlns="http://www.w3.org/2000/svg">
<path d="M4.65352 11.6501H21.174C21.3931 11.6501 21.6032 11.7397 21.7581 11.899C21.913 12.0584 22 12.2746 22 12.5C22 12.7254 21.913 12.9416 21.7581 13.101C21.6032 13.2604 21.3931 13.3499 21.174 13.3499H4.65352C4.43445 13.3499 4.22435 13.2604 4.06944 13.101C3.91453 12.9416 3.8275 12.7254 3.8275 12.5C3.8275 12.2746 3.91453 12.0584 4.06944 11.899C4.22435 11.7397 4.43445 11.6501 4.65352 11.6501Z" fill="white"/>
<path d="M4.9955 12.5L11.8465 19.5473C12.0016 19.7069 12.0888 19.9233 12.0888 20.149C12.0888 20.3747 12.0016 20.5912 11.8465 20.7508C11.6914 20.9103 11.4811 21 11.2617 21C11.0424 21 10.832 20.9103 10.6769 20.7508L3.24268 13.1017C3.16575 13.0228 3.10472 12.929 3.06308 12.8257C3.02144 12.7225 3 12.6118 3 12.5C3 12.3882 3.02144 12.2775 3.06308 12.1743C3.10472 12.071 3.16575 11.9772 3.24268 11.8983L10.6769 4.24924C10.832 4.08965 11.0424 4 11.2617 4C11.4811 4 11.6914 4.08965 11.8465 4.24924C12.0016 4.40883 12.0888 4.62528 12.0888 4.85097C12.0888 5.07666 12.0016 5.2931 11.8465 5.45269L4.9955 12.5Z" fill="white"/>
</svg>
