<svg width="25" height="25" viewBox="0 0 25 25" fill="none" xmlns="http://www.w3.org/2000/svg">
<path d="M7.72725 12.5001C7.72725 13.7659 8.23008 14.9798 9.12514 15.8749C10.0202 16.7699 11.2341 17.2728 12.4999 17.2728V7.72735C11.2341 7.72735 10.0202 8.23019 9.12514 9.12524C8.23008 10.0203 7.72725 11.2343 7.72725 12.5001Z" fill="white"/>
<path d="M12.4999 2.00011C10.4233 2.00011 8.3932 2.61592 6.66649 3.76967C4.93979 4.92342 3.59398 6.56328 2.79927 8.4819C2.00455 10.4005 1.79662 12.5117 2.20176 14.5485C2.6069 16.5853 3.60692 18.4562 5.07537 19.9246C6.54381 21.3931 8.41472 22.3931 10.4515 22.7982C12.4883 23.2034 14.5995 22.9954 16.5181 22.2007C18.4367 21.406 20.0766 20.0602 21.2303 18.3335C22.3841 16.6068 22.9999 14.5767 22.9999 12.5001C23.0062 11.1194 22.7389 9.7512 22.2135 8.47443C21.6881 7.19767 20.9149 6.03765 19.9386 5.06138C18.9623 4.08511 17.8023 3.31193 16.5256 2.7865C15.2488 2.26107 13.8806 1.99379 12.4999 2.00011ZM3.90909 12.5001C3.92162 10.2255 4.83075 8.04763 6.43914 6.43924C8.04753 4.83085 10.2254 3.92172 12.4999 3.90919L12.4999 7.72735C13.7657 7.72735 14.9797 8.23019 15.8748 9.12524C16.7698 10.0203 17.2726 11.2343 17.2726 12.5001C17.2726 13.7659 16.7698 14.9798 15.8748 15.8749C14.9797 16.7699 13.7657 17.2728 12.4999 17.2728L12.4999 21.0909C10.2254 21.0784 8.04753 20.1693 6.43914 18.5609C4.83075 16.9525 3.92162 14.7746 3.90909 12.5001Z" fill="white"/>
</svg>
