<svg width="25" height="25" viewBox="0 0 25 25" fill="none" xmlns="http://www.w3.org/2000/svg">
<path d="M12 4H7C5.93913 4 4.92178 4.42142 4.17163 5.17157C3.42149 5.92172 3 6.93913 3 8V18C3 19.0609 3.42149 20.0783 4.17163 20.8284C4.92178 21.5786 5.93913 22 7 22H18C20.21 22 21 20.2 21 18V13M22.1625 6.46259L12.6724 15.9512C11.7273 16.8961 8.92206 17.3337 8.29535 16.7071C7.66865 16.0805 8.0964 13.2757 9.04143 12.3308L18.5415 2.83219C18.7758 2.57663 19.0594 2.3712 19.3753 2.22828C19.6912 2.08535 20.0328 2.00787 20.3794 2.00057C20.726 1.99328 21.0706 2.05628 21.3922 2.18579C21.7138 2.3153 22.0059 2.50865 22.2507 2.75412C22.4955 2.99959 22.6881 3.29211 22.8167 3.61403C22.9454 3.93596 23.0075 4.2806 22.9993 4.62717C22.991 4.97375 22.9125 5.31509 22.7688 5.63054C22.6249 5.94598 22.4187 6.22904 22.1625 6.46259Z" stroke="white" stroke-width="2" stroke-linecap="round" stroke-linejoin="round"/>
</svg>
