<svg width="25" height="25" viewBox="0 0 25 25" fill="none" xmlns="http://www.w3.org/2000/svg">
<path d="M6 9H12M12 9H19M12 9V6M18.3536 9.35355C17 12 17 12.5 14.5 15C14.2427 15.2573 13.9802 15.4933 13.7162 15.7099M13.7162 15.7099C11.4143 17.5976 9 18 9 18M13.7162 15.7099C13.6406 15.6384 13.5682 15.5682 13.5 15.5C12.4684 14.4683 11.3536 12.6464 11.3536 12.6464M13.7162 15.7099C14.7834 16.7195 16.5 18 16.5 18M16.538 2H8.46203C6.73865 2.00952 5.08966 2.70327 3.87781 3.92864C2.66596 5.15402 1.99052 6.81062 2.0001 8.534V16.466C1.99052 18.1893 2.66596 19.8459 3.87781 21.0713C5.08966 22.2966 6.73865 22.9906 8.46203 23H16.538C18.2613 22.9906 19.9102 22.2966 21.1221 21.0713C22.3341 19.8459 23.0094 18.1893 22.9999 16.466V8.534C23.0094 6.81062 22.3341 5.15402 21.1221 3.92864C19.9102 2.70327 18.2613 2.00952 16.538 2Z" stroke="white" stroke-width="2" stroke-linecap="round"/>
</svg>
