<svg width="25" height="25" viewBox="0 0 25 25" fill="none" xmlns="http://www.w3.org/2000/svg">
<path d="M22.286 9.9275L20.3015 9.266L21.236 7.397C21.3307 7.20137 21.3624 6.98116 21.3267 6.76676C21.2909 6.55236 21.1896 6.35433 21.0365 6.2L18.8 3.9635C18.6448 3.80819 18.4449 3.70542 18.2283 3.66963C18.0117 3.63385 17.7894 3.66685 17.5925 3.764L15.7235 4.6985L15.062 2.714C14.9921 2.50715 14.8595 2.32721 14.6826 2.19924C14.5057 2.07127 14.2933 2.00163 14.075 2H10.925C10.7049 1.99944 10.4901 2.06806 10.3111 2.19619C10.1321 2.32431 9.99794 2.50545 9.9275 2.714L9.266 4.6985L7.397 3.764C7.20137 3.66927 6.98116 3.63759 6.76676 3.67332C6.55236 3.70905 6.35433 3.81044 6.2 3.9635L3.9635 6.2C3.80819 6.35516 3.70542 6.55509 3.66963 6.77168C3.63385 6.98827 3.66685 7.21064 3.764 7.4075L4.6985 9.2765L2.714 9.938C2.50715 10.0079 2.32721 10.1405 2.19924 10.3174C2.07127 10.4943 2.00163 10.7067 2 10.925V14.075C1.99944 14.2951 2.06806 14.5099 2.19619 14.6889C2.32431 14.8679 2.50545 15.0021 2.714 15.0725L4.6985 15.734L3.764 17.603C3.66927 17.7986 3.63759 18.0188 3.67332 18.2332C3.70905 18.4476 3.81044 18.6457 3.9635 18.8L6.2 21.0365C6.35516 21.1918 6.55509 21.2946 6.77168 21.3304C6.98827 21.3661 7.21064 21.3331 7.4075 21.236L9.2765 20.3015L9.938 22.286C10.0084 22.4945 10.1426 22.6757 10.3216 22.8038C10.5006 22.9319 10.7154 23.0006 10.9355 23H14.0855C14.3056 23.0006 14.5204 22.9319 14.6994 22.8038C14.8784 22.6757 15.0126 22.4945 15.083 22.286L15.7445 20.3015L17.6135 21.236C17.8079 21.3283 18.0259 21.3587 18.2382 21.323C18.4504 21.2874 18.6465 21.1873 18.8 21.0365L21.0365 18.8C21.1918 18.6448 21.2946 18.4449 21.3304 18.2283C21.3661 18.0117 21.3331 17.7894 21.236 17.5925L20.3015 15.7235L22.286 15.062C22.4929 14.9921 22.6728 14.8595 22.8008 14.6826C22.9287 14.5057 22.9984 14.2933 23 14.075V10.925C23.0006 10.7049 22.9319 10.4901 22.8038 10.3111C22.6757 10.1321 22.4945 9.99794 22.286 9.9275ZM20.9 13.319L19.64 13.739C19.3503 13.833 19.0844 13.9889 18.861 14.1959C18.6375 14.4028 18.4617 14.656 18.3458 14.9377C18.23 15.2194 18.1767 15.5229 18.1899 15.8272C18.2031 16.1315 18.2822 16.4293 18.422 16.7L19.0205 17.897L17.8655 19.052L16.7 18.422C16.4307 18.2878 16.1358 18.2131 15.8351 18.2029C15.5345 18.1926 15.2351 18.2471 14.9573 18.3626C14.6796 18.4781 14.4298 18.6519 14.2251 18.8723C14.0203 19.0927 13.8653 19.3545 13.7705 19.64L13.3505 20.9H11.681L11.261 19.64C11.167 19.3503 11.0111 19.0844 10.8041 18.861C10.5972 18.6375 10.344 18.4617 10.0623 18.3458C9.78064 18.23 9.4771 18.1767 9.17279 18.1899C8.86847 18.2031 8.57065 18.2822 8.3 18.422L7.103 19.0205L5.948 17.8655L6.578 16.7C6.71775 16.4293 6.79695 16.1315 6.8101 15.8272C6.82325 15.5229 6.77004 15.2194 6.65417 14.9377C6.53829 14.656 6.36252 14.4028 6.13904 14.1959C5.91557 13.9889 5.64974 13.833 5.36 13.739L4.1 13.319V11.681L5.36 11.261C5.64974 11.167 5.91557 11.0111 6.13904 10.8041C6.36252 10.5972 6.53829 10.344 6.65417 10.0623C6.77004 9.78064 6.82325 9.4771 6.8101 9.17279C6.79695 8.86847 6.71775 8.57065 6.578 8.3L5.9795 7.1345L7.1345 5.9795L8.3 6.578C8.57065 6.71775 8.86847 6.79695 9.17279 6.8101C9.4771 6.82325 9.78064 6.77004 10.0623 6.65417C10.344 6.53829 10.5972 6.36252 10.8041 6.13904C11.0111 5.91557 11.167 5.64974 11.261 5.36L11.681 4.1H13.319L13.739 5.36C13.833 5.64974 13.9889 5.91557 14.1959 6.13904C14.4028 6.36252 14.656 6.53829 14.9377 6.65417C15.2194 6.77004 15.5229 6.82325 15.8272 6.8101C16.1315 6.79695 16.4293 6.71775 16.7 6.578L17.897 5.9795L19.052 7.1345L18.422 8.3C18.2878 8.56927 18.2131 8.86421 18.2029 9.16487C18.1926 9.46553 18.2471 9.76489 18.3626 10.0427C18.4781 10.3204 18.6519 10.5702 18.8723 10.7749C19.0927 10.9797 19.3545 11.1347 19.64 11.2295L20.9 11.6495V13.319ZM12.5 8.3C11.6693 8.3 10.8573 8.54633 10.1666 9.00783C9.47592 9.46933 8.93759 10.1253 8.61971 10.8927C8.30182 11.6602 8.21865 12.5047 8.3807 13.3194C8.54276 14.1341 8.94277 14.8825 9.53015 15.4698C10.1175 16.0572 10.8659 16.4572 11.6806 16.6193C12.4953 16.7814 13.3398 16.6982 14.1073 16.3803C14.8747 16.0624 15.5307 15.5241 15.9922 14.8334C16.4537 14.1427 16.7 13.3307 16.7 12.5C16.7 11.3861 16.2575 10.3178 15.4698 9.53015C14.6822 8.7425 13.6139 8.3 12.5 8.3ZM12.5 14.6C12.0847 14.6 11.6786 14.4768 11.3333 14.2461C10.988 14.0153 10.7188 13.6874 10.5599 13.3036C10.4009 12.9199 10.3593 12.4977 10.4404 12.0903C10.5214 11.683 10.7214 11.3088 11.0151 11.0151C11.3088 10.7214 11.683 10.5214 12.0903 10.4404C12.4977 10.3593 12.9199 10.4009 13.3036 10.5599C13.6874 10.7188 14.0153 10.988 14.2461 11.3333C14.4768 11.6786 14.6 12.0847 14.6 12.5C14.6 13.057 14.3787 13.5911 13.9849 13.9849C13.5911 14.3787 13.057 14.6 12.5 14.6Z" fill="white"/>
</svg>
