<svg width="25" height="25" viewBox="0 0 25 25" fill="none" xmlns="http://www.w3.org/2000/svg">
<path d="M12.9825 4.21265C12.8587 4.07717 12.6836 4 12.5 4C12.3164 4 12.1413 4.07717 12.0175 4.21265L8.53027 8.02675C8.2866 8.29326 8.30512 8.70684 8.57162 8.95051C8.83814 9.19417 9.25171 9.17566 9.49538 8.90915L11.8462 6.33798V15.9872C11.8462 16.3483 12.1389 16.641 12.5 16.641C12.8611 16.641 13.1538 16.3483 13.1538 15.9872V6.33798L15.5046 8.90915C15.7483 9.17566 16.1619 9.19417 16.4284 8.95051C16.6949 8.70684 16.7134 8.29326 16.4697 8.02675L12.9825 4.21265Z" fill="white"/>
<path d="M5.30769 15.1154C5.30769 14.7543 5.01496 14.4615 4.65385 14.4615C4.29274 14.4615 4 14.7543 4 15.1154V15.1632C3.99998 16.3555 3.99997 17.3165 4.10158 18.0723C4.20709 18.857 4.43279 19.5177 4.95754 20.0424C5.48229 20.5672 6.14299 20.7929 6.92771 20.8984C7.68353 21 8.64452 21 9.83678 21H15.1632C16.3555 21 17.3165 21 18.0723 20.8984C18.857 20.7929 19.5177 20.5672 20.0425 20.0424C20.5672 19.5177 20.7929 18.857 20.8984 18.0723C21 17.3165 21 16.3555 21 15.1632V15.1154C21 14.7543 20.7073 14.4615 20.3462 14.4615C19.9851 14.4615 19.6923 14.7543 19.6923 15.1154C19.6923 16.3668 19.6909 17.2395 19.6024 17.8981C19.5164 18.5378 19.3591 18.8765 19.1178 19.1178C18.8765 19.3591 18.5378 19.5164 17.8981 19.6024C17.2395 19.6909 16.3668 19.6923 15.1154 19.6923H9.88462C8.63323 19.6923 7.76046 19.6909 7.10195 19.6024C6.46225 19.5164 6.12349 19.3591 5.88221 19.1178C5.64094 18.8765 5.48362 18.5378 5.39762 17.8981C5.30908 17.2395 5.30769 16.3668 5.30769 15.1154Z" fill="#1C274C"/>
<path d="M12.9825 4.21265C12.8587 4.07717 12.6836 4 12.5 4C12.3164 4 12.1413 4.07717 12.0175 4.21265L8.53027 8.02675C8.2866 8.29326 8.30512 8.70684 8.57162 8.95051C8.83814 9.19417 9.25171 9.17566 9.49538 8.90915L11.8462 6.33798V15.9872C11.8462 16.3483 12.1389 16.641 12.5 16.641C12.8611 16.641 13.1538 16.3483 13.1538 15.9872V6.33798L15.5046 8.90915C15.7483 9.17566 16.1619 9.19417 16.4284 8.95051C16.6949 8.70684 16.7134 8.29326 16.4697 8.02675L12.9825 4.21265Z" stroke="white" stroke-width="2"/>
<path d="M5.30769 15.1154C5.30769 14.7543 5.01496 14.4615 4.65385 14.4615C4.29274 14.4615 4 14.7543 4 15.1154V15.1632C3.99998 16.3555 3.99997 17.3165 4.10158 18.0723C4.20709 18.857 4.43279 19.5177 4.95754 20.0424C5.48229 20.5672 6.14299 20.7929 6.92771 20.8984C7.68353 21 8.64452 21 9.83678 21H15.1632C16.3555 21 17.3165 21 18.0723 20.8984C18.857 20.7929 19.5177 20.5672 20.0425 20.0424C20.5672 19.5177 20.7929 18.857 20.8984 18.0723C21 17.3165 21 16.3555 21 15.1632V15.1154C21 14.7543 20.7073 14.4615 20.3462 14.4615C19.9851 14.4615 19.6923 14.7543 19.6923 15.1154C19.6923 16.3668 19.6909 17.2395 19.6024 17.8981C19.5164 18.5378 19.3591 18.8765 19.1178 19.1178C18.8765 19.3591 18.5378 19.5164 17.8981 19.6024C17.2395 19.6909 16.3668 19.6923 15.1154 19.6923H9.88462C8.63323 19.6923 7.76046 19.6909 7.10195 19.6024C6.46225 19.5164 6.12349 19.3591 5.88221 19.1178C5.64094 18.8765 5.48362 18.5378 5.39762 17.8981C5.30908 17.2395 5.30769 16.3668 5.30769 15.1154Z" stroke="white" stroke-width="2"/>
</svg>
