<svg width="25" height="25" viewBox="0 0 25 25" fill="none" xmlns="http://www.w3.org/2000/svg">
<path d="M19.9246 9.0412C17.9415 7.05801 15.3047 5.96585 12.5 5.96585C9.69531 5.96585 7.05854 7.05801 5.07535 9.04124C3.09216 11.0244 2 13.6612 2 16.4659C2 16.6969 2.18732 16.8842 2.41832 16.8842H9.93587C10.1517 18.1043 11.219 19.0342 12.5 19.0342C13.7811 19.0342 14.8483 18.1043 15.0641 16.8842H22.5817C22.8127 16.8842 23 16.6969 23 16.4659C23 13.6612 21.9078 11.0244 19.9246 9.0412ZM9.92356 16.0475H2.8455C2.94213 13.7623 3.82987 11.6192 5.37743 9.93489L10.3724 14.9298C10.1421 15.2555 9.98431 15.6358 9.92356 16.0475ZM12.5 18.1975C11.5251 18.1975 10.7319 17.4043 10.7319 16.4294C10.7319 15.4545 11.5251 14.6613 12.5 14.6613C13.4749 14.6613 14.2681 15.4545 14.2681 16.4294C14.2681 17.4043 13.4749 18.1975 12.5 18.1975ZM11.9855 13.876V9.63704C11.9855 9.35333 12.2163 9.1225 12.5 9.1225C12.7837 9.1225 13.0145 9.35333 13.0145 9.63704V13.876C12.8481 13.8425 12.6761 13.8247 12.5 13.8247C12.3239 13.8247 12.1519 13.8425 11.9855 13.876ZM14.0422 14.332C13.9805 14.2865 13.9168 14.2434 13.8511 14.2033V9.63708C13.8511 8.89199 13.245 8.2859 12.5 8.2859C11.7549 8.2859 11.1488 8.89203 11.1488 9.63708V14.2034C11.0831 14.2434 11.0195 14.2866 10.9577 14.3321L5.969 9.34328C7.75568 7.70159 10.0587 6.80249 12.5 6.80249C14.9413 6.80249 17.2443 7.70159 19.031 9.34328L14.0422 14.332ZM15.0764 16.0475C15.0157 15.6358 14.8579 15.2555 14.6277 14.9298L19.6226 9.93489C21.1702 11.6192 22.0579 13.7623 22.1545 16.0475H15.0764Z" stroke="white" stroke-width="2"/>
</svg>
