<svg width="25" height="25" viewBox="0 0 25 25" fill="none" xmlns="http://www.w3.org/2000/svg">
<path d="M5.375 10.4L6.23175 4.33968C6.42261 2.98956 7.41344 2 8.57442 2H16.4255C17.5865 2 18.5774 2.98956 18.7682 4.33968L19.625 10.4M5.375 10.4H19.625M5.375 10.4C4.06332 10.4 3 11.6536 3 13.2V16C3 17.5464 4.06332 18.8 5.375 18.8M19.625 10.4C20.9367 10.4 22 11.6536 22 13.2V16C22 17.5464 20.9367 18.8 19.625 18.8M5.375 18.8H19.625M5.375 18.8V20.9001C5.375 22.0598 6.17247 23 7.15619 23C8.13992 23 8.93738 22.0598 8.93738 20.9001V18.8H5.375ZM19.625 18.8L19.6249 20.9001C19.6249 22.0598 18.8274 23 17.8436 23C16.8599 23 16.0625 22.0598 16.0625 20.9001V18.8H19.625Z" stroke="white" stroke-width="2"/>
</svg>
