<svg width="25" height="25" viewBox="0 0 25 25" fill="none" xmlns="http://www.w3.org/2000/svg">
<path d="M12.5 16.25L16.25 12.5M16.25 12.5L12.5 8.75M16.25 12.5H2.5M2.5 6.56003V6.50025C2.5 5.10011 2.5 4.39953 2.77249 3.86475C3.01216 3.39434 3.39434 3.01216 3.86475 2.77249C4.39953 2.5 5.10011 2.5 6.50025 2.5H18.5002C19.9004 2.5 20.5995 2.5 21.1343 2.77249C21.6046 3.01216 21.9881 3.39434 22.2277 3.86475C22.5 4.399 22.5 5.09874 22.5 6.49614V18.5045C22.5 19.9019 22.5 20.6006 22.2277 21.1349C21.9881 21.6052 21.6046 21.9881 21.1343 22.2277C20.6 22.5 19.9013 22.5 18.5039 22.5H6.49614C5.09874 22.5 4.399 22.5 3.86475 22.2277C3.39434 21.9881 3.01216 21.6049 2.77249 21.1345C2.5 20.5998 2.5 19.9001 2.5 18.5V18.4375" stroke="white" stroke-width="2" stroke-linecap="round" stroke-linejoin="round"/>
</svg>
