<svg width="25" height="25" viewBox="0 0 25 25" fill="none" xmlns="http://www.w3.org/2000/svg">
<path d="M22 12.2039V13.725C22 17.6258 22 19.5763 20.887 20.7881C19.7741 22 17.9826 22 14.4 22H10.6C7.01732 22 5.22599 22 4.11299 20.7881C3 19.5763 3 17.6258 3 13.725V12.2039C3 9.91549 3 8.77128 3.49324 7.82274C3.98648 6.87421 4.8876 6.28551 6.68983 5.10813L8.58983 3.86687C10.4949 2.62229 11.4475 2 12.5 2C13.5525 2 14.5051 2.62229 16.4102 3.86687L18.3102 5.10812C20.1124 6.28551 21.0135 6.87421 21.5068 7.82274M15.35 18H9.65" stroke="white" stroke-width="2" stroke-linecap="round"/>
</svg>
