<svg width="25" height="25" viewBox="0 0 25 25" fill="none" xmlns="http://www.w3.org/2000/svg">
<path d="M14.788 17.3343L12.8722 15.4345C11.9478 14.5177 11.4855 14.0593 10.9551 13.8918C10.4886 13.7444 9.98719 13.7498 9.52398 13.9073C8.99728 14.0863 8.54508 14.5546 7.64069 15.491L3.05064 20.0247M14.788 17.3343L15.1801 16.9455C16.1057 16.0276 16.5684 15.5687 17.0995 15.4011C17.5664 15.2539 18.0682 15.2596 18.5317 15.4177C19.0587 15.5973 19.5108 16.0668 20.415 17.0057L21.3759 17.9728M14.788 17.3343L19.3947 21.95M3.05064 20.0247C3.08627 20.3141 3.14696 20.5429 3.25036 20.7458C3.47057 21.178 3.82196 21.5295 4.25418 21.7496C4.74552 22 5.38874 22 6.67517 22H17.7007C18.4521 22 18.9842 22 19.3947 21.95M3.05064 20.0247C3 19.6135 3 19.08 3 18.3248V7.29933C3 6.0129 3 5.36968 3.25036 4.87834C3.47057 4.44612 3.82196 4.09473 4.25418 3.87451C4.74552 3.62416 5.38874 3.62416 6.67517 3.62416L12.7622 3.62403M21.3759 17.9728V18.3248C21.3759 19.6113 21.3759 20.2545 21.1255 20.7458C20.9053 21.178 20.5539 21.5295 20.1217 21.7496C19.9174 21.8538 19.6868 21.9146 19.3947 21.95M21.3759 17.9728V12.2377M14.4849 10.5152L16.8105 10.05C17.0133 10.0095 17.1147 9.98919 17.2092 9.9521C17.2932 9.91919 17.3729 9.8765 17.4469 9.82493C17.5301 9.76684 17.6033 9.69372 17.7495 9.54749L22.5244 4.7727C23.1585 4.13841 23.1585 3.11002 22.5244 2.47572C21.89 1.84143 20.8616 1.84143 20.2274 2.47572L15.4525 7.25051C15.3063 7.39673 15.2332 7.46986 15.175 7.55316C15.1235 7.6271 15.0809 7.70685 15.0479 7.79077C15.0108 7.88531 14.9906 7.98671 14.9499 8.18949L14.4849 10.5152Z" stroke="white" stroke-width="2" stroke-linecap="round" stroke-linejoin="round"/>
</svg>
