<svg width="25" height="25" viewBox="0 0 25 25" fill="none" xmlns="http://www.w3.org/2000/svg">
<path d="M13.6493 4.46235C13.5718 4.28922 13.3518 4.20484 13.159 4.27437C12.9651 4.34288 12.8702 4.53897 12.9466 4.7121C12.9537 4.72796 13.6421 6.33344 12.9345 8.54473L12.9341 8.54845C12.4748 8.92071 12.0045 9.3149 11.5188 9.74893C11.0058 10.2069 10.5394 10.6504 10.1031 11.0814C10.4804 7.98212 9.91489 5.6382 9.8873 5.52682C9.84194 5.34491 9.64008 5.23117 9.43633 5.27032C9.23258 5.31082 9.10406 5.49105 9.14904 5.67296C9.15623 5.70198 9.83816 8.53123 9.19818 12.0054C8.34388 12.915 7.66724 13.7402 7.13273 14.456C7.40074 11.7898 6.88929 9.6821 6.8632 9.5768C6.81784 9.39489 6.6175 9.27778 6.41224 9.32064C6.20849 9.3608 6.07996 9.54103 6.12495 9.72294C6.13251 9.7523 6.8375 12.6761 6.14309 15.8981C5.6203 16.7378 5.40484 17.2441 5.38329 17.2957C5.31147 17.4706 5.41126 17.6643 5.60707 17.7287C5.65017 17.7429 5.69439 17.75 5.73786 17.75C5.89134 17.75 6.03574 17.6656 6.09244 17.5296C6.09735 17.5181 6.28144 17.0902 6.72901 16.3592C10.6747 15.4392 14.2874 16.3764 14.324 16.3858C14.3599 16.3953 14.3962 16.4 14.4321 16.4C14.5951 16.4 14.7451 16.3055 14.7943 16.159C14.854 15.9808 14.7406 15.7928 14.5406 15.7392C14.3932 15.6994 11.1056 14.8445 7.24991 15.5583C7.78518 14.7766 8.53742 13.7972 9.55881 12.6828C9.57846 12.6808 9.59812 12.6801 9.61702 12.6757C13.6221 11.7007 17.694 12.6659 17.7348 12.6757C17.7681 12.6835 17.8014 12.6875 17.8342 12.6875C18.0006 12.6875 18.1533 12.589 18.199 12.4388C18.2538 12.2589 18.1351 12.0736 17.9337 12.0243C17.773 11.9852 14.2288 11.1475 10.3689 11.8299C10.8758 11.3156 11.4326 10.7807 12.0533 10.2261C12.5863 9.75028 13.103 9.31727 13.6043 8.91666C16.0432 8.36012 18.4625 8.95581 18.4867 8.96222C18.5211 8.97066 18.5559 8.97504 18.5903 8.97504C18.7551 8.97504 18.9063 8.87818 18.9535 8.72968C19.0106 8.55081 18.8949 8.36417 18.6938 8.31287C18.6035 8.29026 16.8416 7.85151 14.7349 8.04996C17.9597 5.68038 20.2055 4.91325 20.2331 4.90414C20.4289 4.83968 20.5287 4.64528 20.4565 4.47079C20.3843 4.29563 20.167 4.20788 19.9715 4.27099C19.8483 4.31149 17.3992 5.14174 13.8976 7.79144C14.2533 5.84812 13.6776 4.52547 13.6493 4.46235Z" stroke="white"/>
<path d="M22.9612 2.4948C22.912 2.40648 22.8214 2.34311 22.7153 2.32243C21.6364 2.10835 20.1917 2 18.4226 2C16.6405 2 14.5977 2.1159 12.8174 2.3175C7.30091 2.94233 3.44812 6.45192 3.44812 10.8513V16.984L2.03713 21.7603C1.88216 22.285 2.22649 22.8254 2.80544 22.9666C3.38403 23.1065 3.98036 22.7942 4.13533 22.2702L4.98692 19.3881H12.1378C17.3288 19.3881 21.5517 15.5587 21.5517 10.8513C21.5517 8.66359 21.5517 5.66752 22.9688 2.77619C23.013 2.68622 23.0101 2.58247 22.9612 2.4948ZM3.43581 22.1001C3.38403 22.2748 3.18562 22.3789 2.99263 22.3323C2.79929 22.2846 2.68451 22.1054 2.73629 21.93L3.66029 18.7498C3.80693 18.9704 4.02164 19.1477 4.28016 19.2587L3.43581 22.1001ZM20.8275 10.8513C20.8275 15.1962 16.9291 18.7314 12.1378 18.7314H4.8964C4.49667 18.7314 4.17226 18.4372 4.17226 18.0747V10.8513C4.17226 6.79339 7.764 3.55205 12.9069 2.96859C14.6589 2.77028 16.6691 2.65635 18.4223 2.65635C19.8879 2.65635 21.157 2.7358 22.1292 2.88782C20.8275 5.78342 20.8275 8.6984 20.8275 10.8513Z" stroke="white"/>
</svg>
