<svg width="25" height="25" viewBox="0 0 25 25" fill="none" xmlns="http://www.w3.org/2000/svg">
<path d="M12.2548 3.09008H4.02703C3.75464 3.09008 3.49341 3.19777 3.30081 3.38946C3.1082 3.58116 3 3.84115 3 4.11224V20.9778C3 21.2489 3.1082 21.5089 3.30081 21.7006C3.49341 21.8923 3.75464 22 4.02703 22H20.973C21.2454 22 21.5066 21.8923 21.6992 21.7006C21.8918 21.5089 22 21.2489 22 20.9778V4.11224C22 3.84115 21.8918 3.58116 21.6992 3.38946C21.5066 3.19777 21.2454 3.09008 20.973 3.09008H18.4321M18.0409 13.0857L22 12.4784M3 15.3926L13.1777 13.8316M9.37168 14.4153L7.45124 3.09008M15.3437 2C14.0425 2.00003 12.7946 2.5145 11.8745 3.43025C10.9544 4.346 10.4375 5.588 10.4375 6.88305C10.4375 10.7044 14.1932 15.3107 15.1655 16.4395C15.1935 16.4721 15.2283 16.4983 15.2675 16.5161C15.3067 16.534 15.3493 16.5431 15.3924 16.5429C15.4355 16.5427 15.478 16.5331 15.517 16.5149C15.556 16.4966 15.5905 16.4702 15.6182 16.4373C16.5741 15.3048 20.2501 10.7019 20.2501 6.88305C20.2501 6.24179 20.1232 5.60681 19.8766 5.01436C19.6301 4.42191 19.2687 3.8836 18.8131 3.43016C18.3574 2.97673 17.8166 2.61705 17.2213 2.37166C16.626 2.12627 15.988 1.99998 15.3437 2ZM15.3437 8.70796C14.981 8.70796 14.6265 8.60093 14.325 8.4004C14.0234 8.19987 13.7884 7.91484 13.6496 7.58137C13.5108 7.2479 13.4745 6.88096 13.5453 6.52695C13.616 6.17294 13.7907 5.84776 14.0471 5.59254C14.3036 5.33732 14.6303 5.16351 14.986 5.0931C15.3417 5.02269 15.7104 5.05884 16.0454 5.19697C16.3805 5.33511 16.6669 5.56902 16.8683 5.86914C17.0698 6.16926 17.1773 6.52211 17.1773 6.88305C17.1773 7.36705 16.9841 7.83123 16.6403 8.17346C16.2964 8.5157 15.83 8.70796 15.3437 8.70796Z" stroke="white" stroke-width="2" stroke-linecap="round" stroke-linejoin="round"/>
</svg>
