<svg width="25" height="25" viewBox="0 0 25 25" fill="none" xmlns="http://www.w3.org/2000/svg">
<path d="M3.30701 19.6644L3.30703 19.6644C3.8623 19.406 4.29245 18.9307 4.62505 18.3459C4.95754 17.7613 5.18704 17.0767 5.34477 16.4158C5.65852 15.1013 5.68269 13.9055 5.68371 13.838V10.6605C5.68371 7.5763 7.49179 4.9171 10.0765 3.75208C10.1324 2.14603 11.4181 0.85 13.0001 0.85C14.582 0.85 15.8678 2.14595 15.9236 3.75215C18.5084 4.91718 20.3165 7.57637 20.3165 10.6606V13.838C20.3175 13.9055 20.3417 15.1013 20.6554 16.4159C20.8132 17.0768 21.0426 17.7614 21.3751 18.346C21.7077 18.9308 22.1378 19.406 22.6931 19.6645C23.0285 19.8207 23.2089 20.1941 23.1326 20.5587C23.0562 20.924 22.7411 21.1901 22.3706 21.1901H16.4826C16.3397 21.87 16.0156 22.5011 15.5345 23.0178C14.8565 23.7459 13.9562 24.15 13 24.15C12.0438 24.15 11.1435 23.7459 10.4654 23.0178L10.5752 22.9155L10.4654 23.0178C9.98435 22.5011 9.66025 21.87 9.51732 21.1901H3.62932C3.25883 21.1901 2.94364 20.924 2.86735 20.5587L3.30701 19.6644ZM3.30701 19.6644C2.9716 19.8206 2.79112 20.1941 2.86734 20.5587L3.30701 19.6644ZM7.24218 13.8442V13.8431V10.6605C7.24218 7.38131 9.82951 4.72111 13.0001 4.72111C16.1706 4.72111 18.758 7.38131 18.758 10.6605L18.758 13.8484L18.758 13.8497C18.7588 13.9473 18.7725 14.8919 18.9928 16.0835H7.00722C7.22766 14.8906 7.24141 13.9442 7.24218 13.8442ZM13.7794 6.12963V6.12961C13.7793 5.69285 13.4347 5.33108 13.0001 5.33108C10.2057 5.33108 7.94027 7.67267 7.94027 10.5416C7.94027 10.9784 8.28492 11.3402 8.71953 11.3402C9.15413 11.3402 9.49878 10.9784 9.49878 10.5416C9.49878 8.545 11.0738 6.92821 13.0001 6.92821C13.4347 6.92821 13.7794 6.56635 13.7794 6.12963ZM6.60288 17.6807H19.3971C19.6168 18.3428 19.9133 19.008 20.3146 19.593H5.68544C6.08671 19.008 6.38318 18.3429 6.60288 17.6807ZM13.0001 2.44714C13.5321 2.44714 13.9973 2.76428 14.2227 3.22937C13.825 3.16012 13.4165 3.12397 13.0001 3.12397C12.5837 3.12397 12.1752 3.16009 11.7775 3.22935C12.0029 2.76428 12.4681 2.44714 13.0001 2.44714ZM13.0001 22.553C12.1803 22.553 11.4448 21.9856 11.1402 21.1901H14.8599C14.5553 21.9856 13.8199 22.553 13.0001 22.553Z" fill="white" stroke="white" stroke-width="0.3"/>
</svg>
