<svg width="25" height="25" viewBox="0 0 25 25" fill="none" xmlns="http://www.w3.org/2000/svg">
<path d="M16.3065 2H4.36956C4.27155 2 4.17755 2.04081 4.10824 2.11344C4.03894 2.18608 4 2.28459 4 2.38731V22.6127C4 22.7154 4.03894 22.8139 4.10824 22.8866C4.17755 22.9592 4.27155 23 4.36956 23H20.6304C20.6793 23 20.7276 22.9899 20.7727 22.9702C20.8178 22.9504 20.8587 22.9216 20.8931 22.8852C20.9274 22.8488 20.9546 22.8057 20.9729 22.7582C20.9913 22.7108 21.0005 22.66 21 22.6088V7.07765C20.9967 6.97819 20.957 6.88388 20.8891 6.81428L16.5652 2.12007C16.5317 2.08323 16.4916 2.05366 16.4473 2.03306C16.4029 2.01246 16.355 2.00123 16.3065 2ZM16.3065 2C16.2085 2 16.1145 2.04081 16.0452 2.11344C15.9759 2.18608 15.9369 2.28459 15.9369 2.38731V7.07765M16.3065 2C16.4045 2 16.4985 2.04081 16.5678 2.11344C16.6371 2.18608 16.6761 2.28459 16.6761 2.38731V7.07765C16.6761 7.18037 16.6371 7.27888 16.5678 7.35152C16.4985 7.42415 16.4045 7.46496 16.3065 7.46496M16.3065 7.46496C16.2085 7.46496 16.1145 7.42415 16.0452 7.35152C15.9759 7.27888 15.9369 7.18037 15.9369 7.07765M16.3065 7.46496H18.413C18.511 7.46496 18.605 7.42415 18.6744 7.35152C18.7437 7.27888 18.7826 7.18037 18.7826 7.07765C18.7826 6.97493 18.7437 6.87641 18.6744 6.80378C18.605 6.73114 18.511 6.69034 18.413 6.69034H16.3065C16.2085 6.69034 16.1145 6.73114 16.0452 6.80378C15.9759 6.87641 15.9369 6.97493 15.9369 7.07765M4.73913 22.2254H20.2609V7.23644L16.1513 2.77462H4.73913V22.2254ZM11.4246 10.1219H7.02304C6.92503 10.1219 6.83103 10.0811 6.76172 10.0085C6.69241 9.93584 6.65348 9.83732 6.65348 9.7346V5.14109C6.65348 5.03837 6.69241 4.93986 6.76172 4.86722C6.83103 4.79459 6.92503 4.75378 7.02304 4.75378H11.4246C11.5226 4.75378 11.6166 4.79459 11.6859 4.86722C11.7552 4.93986 11.7941 5.03837 11.7941 5.14109V9.7346C11.7941 9.83732 11.7552 9.93584 11.6859 10.0085C11.6166 10.0811 11.5226 10.1219 11.4246 10.1219ZM7.39261 9.34729H11.055V5.5284H7.39261V9.34729ZM17.9843 13.2746H7.01565C6.91763 13.2746 6.82363 13.2338 6.75433 13.1612C6.68502 13.0885 6.64608 12.99 6.64608 12.8873C6.64608 12.7846 6.68502 12.6861 6.75433 12.6134C6.82363 12.5408 6.91763 12.5 7.01565 12.5H17.9843C18.0823 12.5 18.1763 12.5408 18.2457 12.6134C18.315 12.6861 18.3539 12.7846 18.3539 12.8873C18.3539 12.99 18.315 13.0885 18.2457 13.1612C18.1763 13.2338 18.0823 13.2746 17.9843 13.2746ZM17.9843 16.315H7.01565C6.91763 16.315 6.82363 16.2742 6.75433 16.2016C6.68502 16.1289 6.64608 16.0304 6.64608 15.9277C6.64608 15.825 6.68502 15.7265 6.75433 15.6538C6.82363 15.5812 6.91763 15.5404 7.01565 15.5404H17.9843C18.0823 15.5404 18.1763 15.5812 18.2457 15.6538C18.315 15.7265 18.3539 15.825 18.3539 15.9277C18.3539 16.0304 18.315 16.1289 18.2457 16.2016C18.1763 16.2742 18.0823 16.315 17.9843 16.315ZM17.9843 19.3593H7.01565C6.91763 19.3593 6.82363 19.3185 6.75433 19.2458C6.68502 19.1732 6.64608 19.0747 6.64608 18.972C6.64608 18.8692 6.68502 18.7707 6.75433 18.6981C6.82363 18.6255 6.91763 18.5847 7.01565 18.5847H17.9843C18.0823 18.5847 18.1763 18.6255 18.2457 18.6981C18.315 18.7707 18.3539 18.8692 18.3539 18.972C18.3539 19.0747 18.315 19.1732 18.2457 19.2458C18.1763 19.3185 18.0823 19.3593 17.9843 19.3593Z" stroke="white"/>
</svg>
