<svg width="25" height="25" viewBox="0 0 25 25" fill="none" xmlns="http://www.w3.org/2000/svg">
<path fill-rule="evenodd" clip-rule="evenodd" d="M18.3911 2C18.8974 2 19.3829 2.20113 19.741 2.55916L22.4408 5.25902C22.7989 5.61705 23 6.10263 23 6.60896V20.1364C23 21.7179 21.7179 23 20.1364 23H4.86364C3.2821 23 2 21.7179 2 20.1364V4.86364C2 3.2821 3.2821 2 4.86364 2H18.3911ZM4.86364 3.90909C4.33646 3.90909 3.90909 4.33646 3.90909 4.86364V20.1364C3.90909 20.6636 4.33646 21.0909 4.86364 21.0909H5.81818V15.3636C5.81818 13.7821 7.10028 12.5 8.68182 12.5H16.3182C17.8998 12.5 19.1818 13.7821 19.1818 15.3636V21.0909H20.1364C20.6636 21.0909 21.0909 20.6636 21.0909 20.1364V7.5635C21.0909 7.05717 20.8898 6.57159 20.5317 6.21356L18.7864 4.46825C18.4284 4.11022 17.9428 3.90909 17.4365 3.90909H17.2727V5.81818C17.2727 7.39972 15.9907 8.68182 14.4091 8.68182H10.5909C9.00937 8.68182 7.72727 7.39972 7.72727 5.81818V3.90909H4.86364ZM17.2727 21.0909V15.3636C17.2727 14.8364 16.8454 14.4091 16.3182 14.4091H8.68182C8.15464 14.4091 7.72727 14.8364 7.72727 15.3636V21.0909H17.2727ZM9.63636 3.90909H15.3636V5.81818C15.3636 6.34536 14.9363 6.77273 14.4091 6.77273H10.5909C10.0637 6.77273 9.63636 6.34536 9.63636 5.81818V3.90909Z" fill="white"/>
</svg>
