<svg width="25" height="25" viewBox="0 0 25 25" fill="none" xmlns="http://www.w3.org/2000/svg">
<path d="M18.2813 15.6774L18.2791 15.6802L18.2762 15.6839L18.2683 15.6938L18.2437 15.724C18.2236 15.7484 18.1959 15.7814 18.1608 15.8218C18.0906 15.9025 17.9906 16.0129 17.8622 16.1431C17.6063 16.4027 17.233 16.7459 16.755 17.0895C15.8058 17.7716 14.3879 18.4939 12.628 18.4939C11.0259 18.4939 9.6364 17.7539 8.70398 17.0935C8.22741 16.7559 7.84273 16.4196 7.57609 16.1668C7.44226 16.04 7.3368 15.9328 7.26296 15.8553C7.22601 15.8166 7.19687 15.7851 7.17596 15.7622L7.15077 15.7343L7.14288 15.7254L7.14012 15.7223L7.13904 15.721M12.5 23C9.71523 23 7.04451 21.8938 5.07538 19.9246C3.10625 17.9555 2 15.2848 2 12.5C2 9.71523 3.10625 7.04451 5.07538 5.07538C7.04451 3.10625 9.71523 2 12.5 2C15.2848 2 17.9555 3.10625 19.9246 5.07538C21.8938 7.04451 23 9.71523 23 12.5C23 15.2848 21.8938 17.9555 19.9246 19.9246C17.9555 21.8938 15.2848 23 12.5 23ZM8.825 11.45C8.40728 11.45 8.00668 11.2841 7.71131 10.9887C7.41594 10.6933 7.25 10.2927 7.25 9.875C7.25 9.45728 7.41594 9.05668 7.71131 8.76131C8.00668 8.46594 8.40728 8.3 8.825 8.3C9.24272 8.3 9.64332 8.46594 9.93869 8.76131C10.2341 9.05668 10.4 9.45728 10.4 9.875C10.4 10.2927 10.2341 10.6933 9.93869 10.9887C9.64332 11.2841 9.24272 11.45 8.825 11.45ZM16.175 11.45C15.7573 11.45 15.3567 11.2841 15.0613 10.9887C14.7659 10.6933 14.6 10.2927 14.6 9.875C14.6 9.45728 14.7659 9.05668 15.0613 8.76131C15.3567 8.46594 15.7573 8.3 16.175 8.3C16.5927 8.3 16.9933 8.46594 17.2887 8.76131C17.5841 9.05668 17.75 9.45728 17.75 9.875C17.75 10.2927 17.5841 10.6933 17.2887 10.9887C16.9933 11.2841 16.5927 11.45 16.175 11.45Z" stroke="white" stroke-width="2" stroke-linecap="round"/>
</svg>
