<svg width="180" height="20" viewBox="0 0 180 20" fill="none" xmlns="http://www.w3.org/2000/svg">
<g clip-path="url(#clip0_48_111)">
<path d="M156.408 13.9102H163.725L160.066 19.3114L156.408 13.9102Z" fill="white"/>
<path d="M174.545 19.1293V0.375084H180V19.1293H174.545ZM148.969 19.1293L157.483 0.375084H162.856L171.397 19.1293H165.72L159.053 2.97388H161.203L154.534 19.1293H148.969ZM136.453 14.923H146.896V19.1293H131.878V15.8071L139.098 9.24313C139.612 8.77964 139.994 8.36705 140.243 8.01072C140.491 7.65439 140.657 7.32753 140.737 7.03282C140.82 6.73811 140.86 6.46484 140.86 6.21567C140.86 5.6075 140.655 5.13597 140.24 4.79571C139.826 4.45546 139.208 4.28667 138.382 4.28667C137.684 4.28667 137.031 4.43938 136.424 4.74213C135.817 5.04488 135.322 5.50033 134.937 6.10851L130.886 3.91159C131.602 2.73275 132.64 1.78701 133.999 1.07167C135.357 0.35633 136.983 0 138.876 0C140.363 0 141.668 0.233088 142.789 0.696584C143.909 1.16008 144.786 1.82184 145.42 2.67917C146.054 3.5365 146.369 4.54655 146.369 5.70663C146.369 6.3148 146.286 6.91762 146.121 7.51507C145.955 8.11252 145.639 8.74749 145.171 9.41728C144.703 10.0871 144.008 10.8319 143.091 11.6544L137.36 16.7984L136.451 14.923H136.453ZM117.242 19.1293V4.58138H111.319V0.375084H128.594V4.58138H122.697V19.1293H117.242ZM100.98 19.5044C99.4559 19.5044 98.0467 19.2686 96.7497 18.7944C95.4554 18.3202 94.3349 17.6477 93.3882 16.7716C92.4415 15.8955 91.7035 14.864 91.1713 13.6772C90.6391 12.4903 90.3717 11.1802 90.3717 9.75218C90.3717 8.32418 90.6391 7.01407 91.1713 5.82719C91.7035 4.64032 92.4442 3.60884 93.3882 2.73275C94.3349 1.85666 95.4554 1.18419 96.7497 0.70998C98.044 0.235767 99.4533 0 100.98 0C102.761 0 104.355 0.302746 105.762 0.910918C107.168 1.51909 108.337 2.3925 109.276 3.5365L105.804 6.59076C105.179 5.87542 104.497 5.33155 103.751 4.95646C103.007 4.58138 102.176 4.39384 101.258 4.39384C100.469 4.39384 99.7421 4.51976 99.0816 4.76892C98.421 5.01808 97.8541 5.37977 97.3861 5.85399C96.9181 6.3282 96.5491 6.8935 96.2843 7.55526C96.0169 8.21701 95.8859 8.94843 95.8859 9.75218C95.8859 10.5559 96.0196 11.2873 96.2843 11.9491C96.5518 12.6109 96.9181 13.1762 97.3861 13.6504C97.8541 14.1246 98.4184 14.4863 99.0816 14.7354C99.7421 14.9846 100.469 15.1105 101.258 15.1105C102.176 15.1105 103.007 14.923 103.751 14.5479C104.494 14.1728 105.179 13.6289 105.804 12.9136L109.276 15.9678C108.34 17.0931 107.168 17.9638 105.762 18.58C104.358 19.1962 102.764 19.5044 100.98 19.5044ZM47.4322 19.1293V0.375084H51.9248L62.5601 12.86H60.4395V0.375084H65.7852V19.1293H61.2925L50.6573 6.64434H52.7779V19.1293H47.4322ZM10.6085 19.5044C9.08424 19.5044 7.67494 19.2686 6.37795 18.7944C5.08364 18.3202 3.96316 17.6477 3.01649 16.7716C2.06983 15.8955 1.33175 14.864 0.799584 13.6772C0.267419 12.4903 0 11.1802 0 9.75218C0 8.32418 0.267419 7.01407 0.799584 5.82719C1.33175 4.64032 2.0725 3.60884 3.01649 2.73275C3.96316 1.85666 5.08364 1.18419 6.37795 0.70998C7.67226 0.235767 9.08156 0 10.6085 0C12.3895 0 13.9834 0.302746 15.39 0.910918C16.7939 1.51909 17.9652 2.3925 18.9039 3.5365L15.4328 6.59076C14.807 5.87542 14.1251 5.33155 13.379 4.95646C12.6356 4.58138 11.8039 4.39384 10.8866 4.39384C10.0978 4.39384 9.37038 4.51976 8.70985 4.76892C8.04932 5.01808 7.48507 5.37977 7.01441 5.85399C6.54643 6.3282 6.17739 6.8935 5.91264 7.55526C5.64522 8.21701 5.51419 8.94843 5.51419 9.75218C5.51419 10.5559 5.6479 11.2873 5.91264 11.9491C6.18006 12.6109 6.54643 13.1762 7.01441 13.6504C7.48239 14.1246 8.04665 14.4863 8.70985 14.7354C9.37038 14.9846 10.0978 15.1105 10.8866 15.1105C11.8039 15.1105 12.6356 14.923 13.379 14.5479C14.1224 14.1728 14.807 13.6289 15.4328 12.9136L18.9039 15.9678C17.9679 17.0931 16.7966 17.9638 15.39 18.58C13.986 19.1962 12.3922 19.5044 10.6085 19.5044Z" fill="white"/>
<path d="M86.3711 7.75354H71.2432V11.8527H86.3711V7.75354Z" fill="white"/>
<path d="M86.3711 15.0194H71.2432V19.1185H86.3711V15.0194Z" fill="white"/>
<path d="M40.3613 10.084C40.5666 5.55355 37.0672 1.71407 32.5451 1.50834C28.023 1.30261 24.1907 4.80853 23.9853 9.33904C23.78 13.8695 27.2794 17.709 31.8015 17.9147C36.3236 18.1205 40.1559 14.6146 40.3613 10.084Z" stroke="white" stroke-width="2" stroke-miterlimit="22.93"/>
<path fill-rule="evenodd" clip-rule="evenodd" d="M30.4563 9.81913C30.4055 9.41994 30.3226 8.62958 30.2371 7.83655C30.0418 7.85262 29.8466 7.87138 28.9561 7.94907C28.0656 8.02945 26.4771 8.17144 25.6829 8.24378C25.1534 8.29201 24.8887 8.41882 24.8887 8.62422V10.1728L25.83 10.1808C26.7713 10.1889 28.6566 10.2049 30.5419 10.2237C30.5232 10.221 30.5072 10.2157 30.4563 9.81913Z" fill="white"/>
<path d="M30.4563 9.81913C30.4055 9.41994 30.3226 8.62958 30.2371 7.83655C30.0418 7.85262 29.8466 7.87138 28.9561 7.94907C28.0656 8.02945 26.4771 8.17144 25.6829 8.24378C25.1534 8.29201 24.8887 8.41882 24.8887 8.62422V10.1728L25.83 10.1808C26.7713 10.1889 28.6566 10.2049 30.5419 10.2237C30.5232 10.221 30.5072 10.2157 30.4563 9.81913Z" stroke="white" stroke-width="0.48" stroke-miterlimit="22.93"/>
<path fill-rule="evenodd" clip-rule="evenodd" d="M33.497 11.2552C33.3552 13.219 33.2108 15.1829 33.0691 17.144H31.2132L31.149 15.9705C31.0849 14.7971 30.9565 12.4528 30.8308 10.1085L31.2747 10.2987C31.7186 10.489 32.6065 10.8721 33.497 11.2525V11.2552Z" fill="white"/>
<path d="M33.497 11.2552C33.3552 13.219 33.2108 15.1829 33.0691 17.144H31.2132L31.149 15.9705C31.0849 14.7971 30.9565 12.4528 30.8308 10.1085L31.2747 10.2987C31.7186 10.489 32.6065 10.8721 33.497 11.2525V11.2552Z" stroke="white" stroke-width="0.48" stroke-miterlimit="22.93"/>
<path fill-rule="evenodd" clip-rule="evenodd" d="M32.2026 8.26794C32.6305 8.26794 32.9781 8.61623 32.9781 9.0449C32.9781 9.47357 32.6305 9.81918 32.2026 9.81918C31.7747 9.81918 31.4271 9.47089 31.4271 9.0449C31.4271 8.61891 31.7747 8.26794 32.2026 8.26794ZM32.2026 6.44611C33.6333 6.44611 34.7966 7.60887 34.7966 9.0449C34.7966 10.4809 33.636 11.6437 32.2026 11.6437C30.7692 11.6437 29.6086 10.4809 29.6086 9.0449C29.6086 7.60887 30.7692 6.44611 32.2026 6.44611Z" fill="white"/>
<path d="M32.2026 8.26794C32.6305 8.26794 32.9781 8.61623 32.9781 9.0449C32.9781 9.47357 32.6305 9.81918 32.2026 9.81918C31.7747 9.81918 31.4271 9.47089 31.4271 9.0449C31.4271 8.61891 31.7747 8.26794 32.2026 8.26794ZM32.2026 6.44611C33.6333 6.44611 34.7966 7.60887 34.7966 9.0449C34.7966 10.4809 33.636 11.6437 32.2026 11.6437C30.7692 11.6437 29.6086 10.4809 29.6086 9.0449C29.6086 7.60887 30.7692 6.44611 32.2026 6.44611Z" stroke="white" stroke-width="0.48" stroke-miterlimit="22.93"/>
<path fill-rule="evenodd" clip-rule="evenodd" d="M33.9623 9.81913C34.0131 9.41994 34.096 8.62958 34.1816 7.83655C34.3768 7.85262 34.572 7.87138 35.4625 7.94907C36.353 8.02945 37.9415 8.17144 38.7357 8.24378C39.2652 8.29201 39.53 8.41882 39.53 8.62422V10.1728L38.5886 10.1808C37.6473 10.1889 35.762 10.2049 33.8767 10.2237C33.8954 10.221 33.9115 10.2157 33.9623 9.81913Z" fill="white"/>
<path d="M33.9623 9.81913C34.0131 9.41994 34.096 8.62958 34.1816 7.83655C34.3768 7.85262 34.572 7.87138 35.4625 7.94907C36.353 8.02945 37.9415 8.17144 38.7357 8.24378C39.2652 8.29201 39.53 8.41882 39.53 8.62422V10.1728L38.5886 10.1808C37.6473 10.1889 35.762 10.2049 33.8767 10.2237C33.8954 10.221 33.9115 10.2157 33.9623 9.81913Z" stroke="white" stroke-width="0.48" stroke-miterlimit="22.93"/>
<path fill-rule="evenodd" clip-rule="evenodd" d="M32.1732 17.3262C32.5048 17.3262 32.7723 17.5941 32.7723 17.9263C32.7723 18.2585 32.5048 18.5264 32.1732 18.5264C31.8416 18.5264 31.5742 18.2585 31.5742 17.9263C31.5742 17.5941 31.8416 17.3262 32.1732 17.3262ZM32.1732 15.9169C33.2804 15.9169 34.1789 16.8171 34.1789 17.9263C34.1789 19.0355 33.2804 19.9357 32.1732 19.9357C31.0661 19.9357 30.1676 19.0355 30.1676 17.9263C30.1676 16.8171 31.0661 15.9169 32.1732 15.9169Z" fill="white"/>
<path d="M32.1732 17.3262C32.5048 17.3262 32.7723 17.5941 32.7723 17.9263C32.7723 18.2585 32.5048 18.5264 32.1732 18.5264C31.8416 18.5264 31.5742 18.2585 31.5742 17.9263C31.5742 17.5941 31.8416 17.3262 32.1732 17.3262ZM32.1732 15.9169C33.2804 15.9169 34.1789 16.8171 34.1789 17.9263C34.1789 19.0355 33.2804 19.9357 32.1732 19.9357C31.0661 19.9357 30.1676 19.0355 30.1676 17.9263C30.1676 16.8171 31.0661 15.9169 32.1732 15.9169Z" stroke="white" stroke-width="0.48" stroke-miterlimit="22.93"/>
<path fill-rule="evenodd" clip-rule="evenodd" d="M24.0624 8.53852C24.394 8.53852 24.6614 8.80643 24.6614 9.13865C24.6614 9.47087 24.394 9.73878 24.0624 9.73878C23.7308 9.73878 23.4634 9.47087 23.4634 9.13865C23.4634 8.80643 23.7308 8.53852 24.0624 8.53852ZM24.0624 7.12927C25.1695 7.12927 26.0681 8.02947 26.0681 9.13865C26.0681 10.2478 25.1695 11.148 24.0624 11.148C22.9553 11.148 22.0568 10.2478 22.0568 9.13865C22.0568 8.02947 22.9553 7.12927 24.0624 7.12927Z" fill="white"/>
<path d="M24.0624 8.53852C24.394 8.53852 24.6614 8.80643 24.6614 9.13865C24.6614 9.47087 24.394 9.73878 24.0624 9.73878C23.7308 9.73878 23.4634 9.47087 23.4634 9.13865C23.4634 8.80643 23.7308 8.53852 24.0624 8.53852ZM24.0624 7.12927C25.1695 7.12927 26.0681 8.02947 26.0681 9.13865C26.0681 10.2478 25.1695 11.148 24.0624 11.148C22.9553 11.148 22.0568 10.2478 22.0568 9.13865C22.0568 8.02947 22.9553 7.12927 24.0624 7.12927Z" stroke="white" stroke-width="0.48" stroke-miterlimit="22.93"/>
<path fill-rule="evenodd" clip-rule="evenodd" d="M40.2493 8.53852C40.5809 8.53852 40.8483 8.80643 40.8483 9.13865C40.8483 9.47087 40.5809 9.73878 40.2493 9.73878C39.9177 9.73878 39.6503 9.47087 39.6503 9.13865C39.6503 8.80643 39.9177 8.53852 40.2493 8.53852ZM40.2493 7.12927C41.3564 7.12927 42.2549 8.02947 42.2549 9.13865C42.2549 10.2478 41.3564 11.148 40.2493 11.148C39.1422 11.148 38.2437 10.2478 38.2437 9.13865C38.2437 8.02947 39.1422 7.12927 40.2493 7.12927Z" fill="white"/>
<path d="M40.2493 8.53852C40.5809 8.53852 40.8483 8.80643 40.8483 9.13865C40.8483 9.47087 40.5809 9.73878 40.2493 9.73878C39.9177 9.73878 39.6503 9.47087 39.6503 9.13865C39.6503 8.80643 39.9177 8.53852 40.2493 8.53852ZM40.2493 7.12927C41.3564 7.12927 42.2549 8.02947 42.2549 9.13865C42.2549 10.2478 41.3564 11.148 40.2493 11.148C39.1422 11.148 38.2437 10.2478 38.2437 9.13865C38.2437 8.02947 39.1422 7.12927 40.2493 7.12927Z" stroke="white" stroke-width="0.48" stroke-miterlimit="22.93"/>
<path d="M86.3711 0.375061H71.2432V4.47419H86.3711V0.375061Z" fill="white"/>
</g>
<defs>
<clipPath id="clip0_48_111">
<rect width="180" height="20" fill="white"/>
</clipPath>
</defs>
</svg>
